<svg xmlns="http://www.w3.org/2000/svg" width="61.07" height="61.07" viewBox="0 0 61.07 61.07"><path transform="translate(0.00 0.00) scale(1.000 1.000)" d="M0 0L61.0684 0L61.0684 61.0684L0 61.0684L0 0Z" fill="#000000" fill-rule="evenodd"/><path transform="translate(0.00 0.00) scale(1.000 1.000)" d="M61.0684 0L0 0L0 61.0684L61.0684 61.0684L61.0684 0Z" fill="rgba(0, 0, 0, 1.0)" fill-rule="evenodd"/><path transform="translate(0.00 0.00) scale(1.000 1.000)" d="M30.5342 0C31.5708 16.4151 44.6532 29.4976 61.0684 30.5342C44.6532 31.5708 31.5708 44.6532 30.5342 61.0684C29.4976 44.6532 16.4151 31.5708 0 30.5342C16.4151 29.4976 29.4976 16.4151 30.5342 0Z" fill="rgba(108, 142, 201, 1.0)" fill-rule="evenodd"/></svg>