<svg xmlns="http://www.w3.org/2000/svg" width="29.99" height="29.99" viewBox="0 0 29.99 29.99"><path transform="translate(0.00 0.00) scale(1.000 1.000)" d="M0 0L29.9854 0L29.9854 29.9854L0 29.9854L0 0Z" fill="#000000" fill-rule="evenodd"/><path transform="translate(5.00 2.50) scale(1.000 1.000)" d="M2.49878 24.9878L17.4915 24.9878C18.8658 24.9878 19.9902 23.8633 19.9902 22.489L19.9902 11.2445C19.9902 9.87018 18.8658 8.74573 17.4915 8.74573L16.2421 8.74573L16.2421 6.24695C16.2421 2.79863 13.4434 0 9.99512 0C6.5468 0 3.74817 2.79863 3.74817 6.24695L3.74817 8.74573L2.49878 8.74573C1.12445 8.74573 0 9.87018 0 11.2445L0 22.489C0 23.8633 1.12445 24.9878 2.49878 24.9878ZM6.24695 6.24695C6.24695 4.18546 7.93362 2.49878 9.99512 2.49878C12.0566 2.49878 13.7433 4.18546 13.7433 6.24695L13.7433 8.74573L6.24695 8.74573L6.24695 6.24695Z" fill="rgba(108, 142, 201, 1.0)" fill-rule="evenodd"/></svg>